<svg width="50.000000" height="40.000000" viewBox="0 0 50 40" fill="none" xmlns="http://www.w3.org/2000/svg" xmlns:xlink="http://www.w3.org/1999/xlink">
	<desc>
			Created with Pixso.
	</desc>
	<defs/>
	<rect id="M" width="50.000000" height="40.000000" fill="#000000" fill-opacity="1.000000"/>
	<path id="M" d="M19.7726 30.0217Q19.8057 29.7639 19.8057 29.502L19.8057 21.5918L24.5342 21.5918L24.5342 30.0117L20.4209 32.2441L20.7197 32.9121L23.3037 31.6113L27.7158 33.457L32.9189 30.2227L32.4619 29.748L30.9678 30.5391L30.9678 21.6445L35.6436 21.6445L35.6436 29.5547Q35.6436 30.1523 35.8193 30.6709Q35.9951 31.1895 36.3467 31.6553Q36.6982 32.1211 37.2256 32.5605Q37.7529 33 38.4736 33.457L42.6396 30.4863L42.2178 29.959L40.4775 30.9961Q40.1436 30.7852 39.8359 30.46Q39.5283 30.1348 39.2734 29.7568Q39.146 29.5679 39.0449 29.3657Q38.9438 29.1636 38.8691 28.9482Q38.7197 28.5176 38.7197 28.0957L38.7197 11.6777L42.0244 9.70898L41.708 9.14648L39.7041 10.2715L36.1006 7.8457L30.9678 11.3613L30.9678 9.23438L30.1592 9.44531L30.1592 11.9766L27.7158 13.5762L27.7158 11.5723Q27.7158 11.3094 27.6491 11.0647Q27.6355 11.0149 27.6191 10.9658Q27.5225 10.6758 27.3379 10.3945Q27.1533 10.1133 26.9248 9.84961Q26.6963 9.58594 26.4326 9.34863Q26.1689 9.11133 25.8877 8.90039Q25.6064 8.68945 25.3516 8.50488Q25.0967 8.32031 24.8682 8.16211Q24.6396 8.00391 24.4814 7.89844L16.501 12.1348Q15.9033 12.4512 15.3408 12.75Q14.7783 13.0488 14.3389 13.4443Q14.2839 13.4938 14.2318 13.546Q13.8665 13.9113 13.6357 14.4111Q13.3721 14.9824 13.3721 15.8613L13.3721 19.3242L12.1416 19.3242Q11.7021 19.3242 11.2188 19.4385Q10.8071 19.5358 10.4528 19.7351Q10.391 19.7698 10.3311 19.8076Q10.2125 19.8823 10.1068 19.9722Q9.85203 20.1888 9.67188 20.4932Q9.41699 20.9238 9.41699 21.5391L9.41699 22.7871Q9.41699 22.8926 9.43457 23.0332Q9.44284 23.0994 9.4589 23.1636Q9.47696 23.2359 9.50488 23.3057Q9.55762 23.4375 9.63672 23.5166Q9.68582 23.5657 9.74507 23.5911Q9.78128 23.6066 9.82129 23.6133Q9.87871 23.6133 9.93039 23.5961Q9.98945 23.5764 10.041 23.5342Q10.1377 23.4551 10.208 23.3408Q10.2783 23.2266 10.3223 23.0859Q10.3662 22.9453 10.3838 22.8398Q10.4541 22.5059 10.5947 22.2773Q10.7354 22.0488 10.9287 21.9082Q10.9907 21.8631 11.0573 21.8261Q11.1982 21.7478 11.3594 21.7061Q11.5967 21.6445 11.8252 21.6445L13.3721 21.6445L13.3721 27.0234Q13.3721 27.1332 13.36 27.2416Q13.3412 27.411 13.293 27.5771Q13.2139 27.8496 13.1172 28.1133Q13.0205 28.377 12.8975 28.6494Q12.7744 28.9219 12.7041 29.1855Q12.7568 29.2207 12.8271 29.2646Q12.8975 29.3086 12.9678 29.3438Q13.7939 28.9922 14.4531 28.6055Q15.1123 28.2188 15.5693 27.7529Q16.0264 27.2871 16.2637 26.751Q16.501 26.2148 16.501 25.5645L16.501 13.998Q16.501 13.418 16.7559 13.0488Q16.9358 12.7883 17.1682 12.589Q17.2651 12.506 17.3711 12.4336Q17.7314 12.1875 18.1533 12.0117Q18.5752 11.8359 18.9268 11.625L18.9268 28.7285Q18.9268 29.502 18.6982 29.9854Q18.4697 30.4688 18.1094 30.7412Q17.958 30.8556 17.7912 30.9391Q17.5608 31.0543 17.3008 31.1104Q16.8525 31.207 16.4131 31.207Q15.5518 31.1895 14.585 30.9609Q13.6182 30.7324 12.5986 30.46Q11.5791 30.1875 10.5332 29.9678Q9.4873 29.748 8.48535 29.748Q7.94043 29.748 7.36035 29.8711Q6.78027 29.9941 6.19141 30.2227Q5.60254 30.4512 5.03125 30.7939Q4.75024 30.9626 4.48624 31.1546Q4.21353 31.3529 3.95898 31.5762Q3.78364 31.73 3.61907 31.8946Q3.31343 32.2002 3.04492 32.543Q2.63184 33.0703 2.3418 33.6943Q2.05176 34.3184 1.91113 35.0215Q1.77051 35.7246 1.82324 36.5156L2.43848 36.5156Q2.49121 35.584 2.8252 34.8193Q3.15918 34.0547 3.66895 33.5186Q4.02884 33.14 4.45884 32.8754Q4.63789 32.7652 4.8291 32.6748Q5.24015 32.4804 5.67226 32.4018Q5.92387 32.3561 6.18262 32.3496Q6.39355 32.332 6.73633 32.3848Q7.0791 32.4375 7.53613 32.5254Q7.99316 32.6133 8.53809 32.7275Q9.08301 32.8418 9.67188 32.9648Q10.2607 33.0879 10.876 33.2109Q11.4912 33.334 12.0977 33.4395Q12.7041 33.5449 13.293 33.624Q13.8818 33.7031 14.3916 33.7207Q15.7275 33.7734 16.7383 33.4395Q17.749 33.1055 18.4346 32.5254Q18.8792 32.1491 19.1797 31.6804Q19.3425 31.4265 19.4629 31.1455Q19.6992 30.594 19.7726 30.0217ZM19.8057 11.0977L21.6514 10.166Q22.1611 10.4297 22.6621 10.7197Q23.1631 11.0098 23.5674 11.3789Q23.9436 11.7224 24.1905 12.1421Q24.2089 12.1734 24.2266 12.2051Q24.2827 12.3058 24.3265 12.4116Q24.4814 12.786 24.4814 13.2246L24.4814 19.0605L19.8057 19.0605L19.8057 11.0977ZM35.6436 19.0078L30.9678 19.0078L30.9678 12.2402L33.5342 10.377L35.6436 11.9766L35.6436 19.0078Z" fill="#FFFFFF" fill-opacity="1.000000" fill-rule="evenodd"/>
</svg>
